<mxfile host="app.diagrams.net" modified="2020-11-10T08:14:19.938Z" agent="5.0 (Windows NT 10.0; Win64; x64) AppleWebKit/537.36 (KHTML, like Gecko) Chrome/86.0.4240.183 Safari/537.36" etag="Z1odWIz57R-40tSuPmT2" version="13.8.9-1" type="github">
  <diagram name="Initialize" id="9f46799a-70d6-7492-0946-bef42562c5a5">
    <mxGraphModel dx="813" dy="435" grid="1" gridSize="10" guides="1" tooltips="1" connect="1" arrows="1" fold="1" page="1" pageScale="1" pageWidth="1100" pageHeight="850" background="#ffffff" math="0" shadow="0">
      <root>
        <mxCell id="0" />
        <mxCell id="1" parent="0" />
        <mxCell id="-JSnuaMhh9l9vGgG3Sei-8" style="edgeStyle=orthogonalEdgeStyle;rounded=0;orthogonalLoop=1;jettySize=auto;html=1;entryX=0;entryY=0.3333333333333333;entryDx=0;entryDy=0;entryPerimeter=0;" edge="1" parent="1" source="-JSnuaMhh9l9vGgG3Sei-1" target="-JSnuaMhh9l9vGgG3Sei-4">
          <mxGeometry relative="1" as="geometry" />
        </mxCell>
        <mxCell id="-JSnuaMhh9l9vGgG3Sei-1" value="Operator" style="shape=umlActor;verticalLabelPosition=bottom;verticalAlign=top;html=1;outlineConnect=0;" vertex="1" parent="1">
          <mxGeometry x="60" y="30" width="30" height="60" as="geometry" />
        </mxCell>
        <mxCell id="-JSnuaMhh9l9vGgG3Sei-4" value="User" style="shape=umlActor;verticalLabelPosition=bottom;verticalAlign=top;html=1;outlineConnect=0;" vertex="1" parent="1">
          <mxGeometry x="260" y="110" width="30" height="60" as="geometry" />
        </mxCell>
        <mxCell id="-JSnuaMhh9l9vGgG3Sei-9" style="edgeStyle=orthogonalEdgeStyle;rounded=0;orthogonalLoop=1;jettySize=auto;html=1;entryX=0;entryY=0.3333333333333333;entryDx=0;entryDy=0;entryPerimeter=0;" edge="1" parent="1" source="-JSnuaMhh9l9vGgG3Sei-6" target="-JSnuaMhh9l9vGgG3Sei-4">
          <mxGeometry relative="1" as="geometry">
            <mxPoint x="300" y="180" as="targetPoint" />
          </mxGeometry>
        </mxCell>
        <mxCell id="-JSnuaMhh9l9vGgG3Sei-6" value="Engineer" style="shape=umlActor;verticalLabelPosition=bottom;verticalAlign=top;html=1;outlineConnect=0;" vertex="1" parent="1">
          <mxGeometry x="60" y="160" width="30" height="60" as="geometry" />
        </mxCell>
        <mxCell id="-JSnuaMhh9l9vGgG3Sei-10" value="User" style="shape=umlActor;verticalLabelPosition=bottom;verticalAlign=top;html=1;outlineConnect=0;" vertex="1" parent="1">
          <mxGeometry x="60" y="425" width="30" height="60" as="geometry" />
        </mxCell>
        <mxCell id="-JSnuaMhh9l9vGgG3Sei-11" value="" style="rounded=0;whiteSpace=wrap;html=1;" vertex="1" parent="1">
          <mxGeometry x="207.5" y="370" width="195" height="205" as="geometry" />
        </mxCell>
        <mxCell id="-JSnuaMhh9l9vGgG3Sei-12" value="Tester Software System" style="text;html=1;strokeColor=none;fillColor=none;align=center;verticalAlign=middle;whiteSpace=wrap;rounded=0;" vertex="1" parent="1">
          <mxGeometry x="210" y="370" width="190" height="20" as="geometry" />
        </mxCell>
        <mxCell id="-JSnuaMhh9l9vGgG3Sei-13" value="Tester" style="shape=umlActor;verticalLabelPosition=bottom;verticalAlign=top;html=1;outlineConnect=0;" vertex="1" parent="1">
          <mxGeometry x="520" y="425" width="30" height="60" as="geometry" />
        </mxCell>
        <mxCell id="-JSnuaMhh9l9vGgG3Sei-16" style="edgeStyle=orthogonalEdgeStyle;rounded=0;orthogonalLoop=1;jettySize=auto;html=1;" edge="1" parent="1" source="-JSnuaMhh9l9vGgG3Sei-14" target="-JSnuaMhh9l9vGgG3Sei-13">
          <mxGeometry relative="1" as="geometry" />
        </mxCell>
        <mxCell id="-JSnuaMhh9l9vGgG3Sei-14" value="System Initialize" style="ellipse;whiteSpace=wrap;html=1;" vertex="1" parent="1">
          <mxGeometry x="235" y="420" width="140" height="70" as="geometry" />
        </mxCell>
        <mxCell id="-JSnuaMhh9l9vGgG3Sei-15" style="edgeStyle=orthogonalEdgeStyle;rounded=0;orthogonalLoop=1;jettySize=auto;html=1;entryX=0;entryY=0.5;entryDx=0;entryDy=0;" edge="1" parent="1" source="-JSnuaMhh9l9vGgG3Sei-10" target="-JSnuaMhh9l9vGgG3Sei-14">
          <mxGeometry relative="1" as="geometry" />
        </mxCell>
      </root>
    </mxGraphModel>
  </diagram>
</mxfile>
